<svg id="svg" version="1.1" xmlns="http://www.w3.org/2000/svg" xmlns:xlink="http://www.w3.org/1999/xlink" width="400" height="400" viewBox="0, 0, 400,400"><g id="svgg"><path id="path0" d="M208.200 78.419 C 204.294 78.721,200.216 79.338,198.000 79.961 C 197.230 80.178,195.970 80.522,195.200 80.727 C 178.779 85.087,165.481 100.372,162.426 118.400 C 162.147 120.050,161.739 121.940,161.521 122.600 C 161.294 123.286,161.030 131.979,160.905 142.894 L 160.687 161.989 148.043 162.094 L 135.400 162.200 135.297 184.894 L 135.193 207.589 147.897 207.694 L 160.600 207.800 160.701 272.900 L 160.802 338.000 187.600 338.000 L 214.398 338.000 214.499 272.900 L 214.600 207.800 232.249 207.696 L 249.898 207.592 250.349 203.796 C 251.000 198.317,251.541 193.226,252.007 188.200 C 252.232 185.780,252.586 182.180,252.795 180.200 C 253.003 178.220,253.450 173.990,253.786 170.800 C 254.123 167.610,254.399 164.325,254.399 163.500 L 254.400 162.000 234.375 162.000 L 214.350 162.000 214.477 146.300 L 214.605 130.600 215.636 128.399 C 216.204 127.189,217.334 125.614,218.149 124.898 C 221.168 122.248,220.979 122.275,238.600 122.026 L 254.600 121.800 254.704 100.226 C 254.785 83.231,254.700 78.584,254.304 78.332 C 253.697 77.947,213.314 78.023,208.200 78.419 " stroke="none" fill="#fafbfb" fill-rule="evenodd"></path><path id="path1" d="M178.700 0.273 C 176.555 0.359,174.800 0.602,174.800 0.814 C 174.800 1.027,173.551 1.200,172.024 1.200 C 170.497 1.200,169.136 1.380,169.000 1.600 C 168.864 1.820,167.773 2.000,166.576 2.000 C 165.379 2.000,164.400 2.180,164.400 2.400 C 164.400 2.620,163.410 2.800,162.200 2.800 C 160.990 2.800,160.000 2.980,160.000 3.200 C 160.000 3.420,159.280 3.600,158.400 3.600 C 157.520 3.600,156.800 3.780,156.800 4.000 C 156.800 4.220,155.900 4.400,154.800 4.400 C 153.700 4.400,152.800 4.580,152.800 4.800 C 152.800 5.020,152.080 5.200,151.200 5.200 C 150.320 5.200,149.600 5.380,149.600 5.600 C 149.600 5.820,148.970 6.000,148.200 6.000 C 147.430 6.000,146.800 6.180,146.800 6.400 C 146.800 6.620,146.170 6.800,145.400 6.800 C 144.630 6.800,144.000 6.980,144.000 7.200 C 144.000 7.420,143.370 7.600,142.600 7.600 C 141.830 7.600,141.200 7.780,141.200 8.000 C 141.200 8.220,140.765 8.400,140.233 8.400 C 139.404 8.400,132.214 10.582,129.800 11.567 C 127.712 12.418,126.542 12.923,125.905 13.247 C 125.523 13.441,124.938 13.600,124.605 13.600 C 124.272 13.600,124.000 13.780,124.000 14.000 C 124.000 14.220,123.561 14.400,123.024 14.400 C 122.487 14.400,121.936 14.580,121.800 14.800 C 121.664 15.020,121.203 15.200,120.776 15.200 C 120.349 15.200,120.000 15.380,120.000 15.600 C 120.000 15.820,119.640 16.000,119.200 16.000 C 118.760 16.000,118.400 16.180,118.400 16.400 C 118.400 16.620,118.040 16.800,117.600 16.800 C 117.160 16.800,116.800 16.980,116.800 17.200 C 116.800 17.420,116.350 17.600,115.800 17.600 C 115.250 17.600,114.800 17.780,114.800 18.000 C 114.800 18.220,114.547 18.400,114.238 18.400 C 113.572 18.400,110.259 20.068,110.067 20.500 C 109.993 20.665,109.588 20.800,109.167 20.800 C 108.745 20.800,108.400 20.980,108.400 21.200 C 108.400 21.420,108.040 21.600,107.600 21.600 C 107.160 21.600,106.800 21.780,106.800 22.000 C 106.800 22.220,106.440 22.400,106.000 22.400 C 105.560 22.400,105.200 22.580,105.200 22.800 C 105.200 23.020,104.964 23.200,104.675 23.200 C 104.387 23.200,103.764 23.560,103.292 24.000 C 102.820 24.440,102.252 24.800,102.030 24.800 C 101.358 24.800,98.800 26.126,98.800 26.474 C 98.800 26.653,98.440 26.800,98.000 26.800 C 97.560 26.800,97.200 26.980,97.200 27.200 C 97.200 27.420,97.007 27.600,96.772 27.600 C 96.537 27.600,95.559 28.140,94.600 28.800 C 93.641 29.460,92.703 30.000,92.516 30.000 C 92.329 30.000,91.917 30.360,91.600 30.800 C 91.283 31.240,90.743 31.600,90.400 31.600 C 90.057 31.600,89.517 31.960,89.200 32.400 C 88.883 32.840,88.343 33.200,88.000 33.200 C 87.657 33.200,87.117 33.560,86.800 34.000 C 86.483 34.440,85.943 34.800,85.600 34.800 C 85.257 34.800,84.717 35.160,84.400 35.600 C 84.083 36.040,83.593 36.400,83.312 36.400 C 83.030 36.400,82.800 36.580,82.800 36.800 C 82.800 37.020,82.570 37.200,82.288 37.200 C 82.007 37.200,81.517 37.560,81.200 38.000 C 80.883 38.440,80.375 38.800,80.072 38.800 C 79.769 38.800,79.017 39.340,78.400 40.000 C 77.783 40.660,77.164 41.200,77.023 41.200 C 76.752 41.200,76.352 41.514,74.349 43.300 C 73.671 43.905,72.958 44.400,72.766 44.400 C 72.574 44.400,71.427 45.390,70.217 46.600 C 69.007 47.810,67.843 48.800,67.629 48.800 C 67.416 48.800,65.297 50.770,62.921 53.179 C 57.684 58.486,58.486 57.684,53.179 62.921 C 50.770 65.297,48.800 67.416,48.800 67.629 C 48.800 67.843,47.810 69.007,46.600 70.217 C 45.390 71.427,44.400 72.574,44.400 72.766 C 44.400 72.958,43.859 73.719,43.199 74.458 C 41.469 76.390,41.200 76.736,41.200 77.023 C 41.200 77.164,40.660 77.783,40.000 78.400 C 39.340 79.017,38.800 79.769,38.800 80.072 C 38.800 80.375,38.440 80.883,38.000 81.200 C 37.560 81.517,37.200 82.007,37.200 82.288 C 37.200 82.570,37.020 82.800,36.800 82.800 C 36.580 82.800,36.400 83.030,36.400 83.312 C 36.400 83.593,36.040 84.083,35.600 84.400 C 35.160 84.717,34.800 85.257,34.800 85.600 C 34.800 85.943,34.440 86.483,34.000 86.800 C 33.560 87.117,33.200 87.657,33.200 88.000 C 33.200 88.343,32.840 88.883,32.400 89.200 C 31.960 89.517,31.600 90.057,31.600 90.400 C 31.600 90.743,31.240 91.283,30.800 91.600 C 30.360 91.917,30.000 92.329,30.000 92.516 C 30.000 92.703,29.460 93.641,28.800 94.600 C 28.140 95.559,27.600 96.537,27.600 96.772 C 27.600 97.007,27.420 97.200,27.200 97.200 C 26.980 97.200,26.800 97.560,26.800 98.000 C 26.800 98.440,26.653 98.800,26.474 98.800 C 26.126 98.800,24.800 101.358,24.800 102.030 C 24.800 102.252,24.440 102.820,24.000 103.292 C 23.560 103.764,23.200 104.387,23.200 104.675 C 23.200 104.964,23.020 105.200,22.800 105.200 C 22.580 105.200,22.400 105.560,22.400 106.000 C 22.400 106.440,22.220 106.800,22.000 106.800 C 21.780 106.800,21.600 107.160,21.600 107.600 C 21.600 108.040,21.420 108.400,21.200 108.400 C 20.980 108.400,20.800 108.745,20.800 109.167 C 20.800 109.588,20.665 109.993,20.500 110.067 C 20.068 110.259,18.400 113.572,18.400 114.238 C 18.400 114.547,18.220 114.800,18.000 114.800 C 17.780 114.800,17.600 115.250,17.600 115.800 C 17.600 116.350,17.420 116.800,17.200 116.800 C 16.980 116.800,16.800 117.160,16.800 117.600 C 16.800 118.040,16.620 118.400,16.400 118.400 C 16.180 118.400,16.000 118.760,16.000 119.200 C 16.000 119.640,15.820 120.000,15.600 120.000 C 15.380 120.000,15.200 120.349,15.200 120.776 C 15.200 121.203,15.020 121.664,14.800 121.800 C 14.580 121.936,14.400 122.487,14.400 123.024 C 14.400 123.561,14.220 124.000,14.000 124.000 C 13.780 124.000,13.600 124.272,13.600 124.605 C 13.600 124.938,13.441 125.523,13.247 125.905 C 13.052 126.287,12.716 127.050,12.500 127.600 C 12.284 128.150,11.912 129.050,11.674 129.600 C 10.712 131.821,8.400 139.329,8.400 140.233 C 8.400 140.765,8.220 141.200,8.000 141.200 C 7.780 141.200,7.600 141.830,7.600 142.600 C 7.600 143.370,7.420 144.000,7.200 144.000 C 6.980 144.000,6.800 144.630,6.800 145.400 C 6.800 146.170,6.620 146.800,6.400 146.800 C 6.180 146.800,6.000 147.430,6.000 148.200 C 6.000 148.970,5.820 149.600,5.600 149.600 C 5.380 149.600,5.200 150.320,5.200 151.200 C 5.200 152.080,5.020 152.800,4.800 152.800 C 4.580 152.800,4.400 153.700,4.400 154.800 C 4.400 155.900,4.220 156.800,4.000 156.800 C 3.780 156.800,3.600 157.520,3.600 158.400 C 3.600 159.280,3.420 160.000,3.200 160.000 C 2.980 160.000,2.800 160.990,2.800 162.200 C 2.800 163.410,2.620 164.400,2.400 164.400 C 2.180 164.400,2.000 165.379,2.000 166.576 C 2.000 167.773,1.820 168.864,1.600 169.000 C 1.380 169.136,1.200 170.482,1.200 171.990 C 1.200 173.829,1.035 174.788,0.700 174.900 C -0.032 175.144,-0.032 224.856,0.700 225.100 C 1.035 225.212,1.200 226.171,1.200 228.010 C 1.200 229.518,1.380 230.864,1.600 231.000 C 1.820 231.136,2.000 232.227,2.000 233.424 C 2.000 234.621,2.180 235.600,2.400 235.600 C 2.620 235.600,2.800 236.590,2.800 237.800 C 2.800 239.010,2.980 240.000,3.200 240.000 C 3.420 240.000,3.600 240.720,3.600 241.600 C 3.600 242.480,3.780 243.200,4.000 243.200 C 4.220 243.200,4.400 244.100,4.400 245.200 C 4.400 246.300,4.580 247.200,4.800 247.200 C 5.020 247.200,5.200 247.920,5.200 248.800 C 5.200 249.680,5.380 250.400,5.600 250.400 C 5.820 250.400,6.000 251.030,6.000 251.800 C 6.000 252.570,6.180 253.200,6.400 253.200 C 6.620 253.200,6.800 253.830,6.800 254.600 C 6.800 255.370,6.980 256.000,7.200 256.000 C 7.420 256.000,7.600 256.630,7.600 257.400 C 7.600 258.170,7.780 258.800,8.000 258.800 C 8.220 258.800,8.400 259.235,8.400 259.767 C 8.400 260.596,10.582 267.786,11.567 270.200 C 12.418 272.288,12.923 273.458,13.247 274.095 C 13.441 274.477,13.600 275.062,13.600 275.395 C 13.600 275.728,13.780 276.000,14.000 276.000 C 14.220 276.000,14.400 276.439,14.400 276.976 C 14.400 277.513,14.580 278.064,14.800 278.200 C 15.020 278.336,15.200 278.797,15.200 279.224 C 15.200 279.651,15.380 280.000,15.600 280.000 C 15.820 280.000,16.000 280.360,16.000 280.800 C 16.000 281.240,16.180 281.600,16.400 281.600 C 16.620 281.600,16.800 281.960,16.800 282.400 C 16.800 282.840,16.980 283.200,17.200 283.200 C 17.420 283.200,17.600 283.650,17.600 284.200 C 17.600 284.750,17.780 285.200,18.000 285.200 C 18.220 285.200,18.400 285.453,18.400 285.762 C 18.400 286.428,20.068 289.741,20.500 289.933 C 20.665 290.007,20.800 290.412,20.800 290.833 C 20.800 291.255,20.980 291.600,21.200 291.600 C 21.420 291.600,21.600 291.960,21.600 292.400 C 21.600 292.840,21.780 293.200,22.000 293.200 C 22.220 293.200,22.400 293.560,22.400 294.000 C 22.400 294.440,22.580 294.800,22.800 294.800 C 23.020 294.800,23.200 295.036,23.200 295.325 C 23.200 295.613,23.560 296.236,24.000 296.708 C 24.440 297.180,24.800 297.748,24.800 297.970 C 24.800 298.642,26.126 301.200,26.474 301.200 C 26.653 301.200,26.800 301.560,26.800 302.000 C 26.800 302.440,26.980 302.800,27.200 302.800 C 27.420 302.800,27.600 302.993,27.600 303.228 C 27.600 303.463,28.140 304.441,28.800 305.400 C 29.460 306.359,30.000 307.297,30.000 307.484 C 30.000 307.671,30.360 308.083,30.800 308.400 C 31.240 308.717,31.600 309.257,31.600 309.600 C 31.600 309.943,31.960 310.483,32.400 310.800 C 32.840 311.117,33.200 311.657,33.200 312.000 C 33.200 312.343,33.560 312.883,34.000 313.200 C 34.440 313.517,34.800 314.057,34.800 314.400 C 34.800 314.743,35.160 315.283,35.600 315.600 C 36.040 315.917,36.400 316.407,36.400 316.688 C 36.400 316.970,36.580 317.200,36.800 317.200 C 37.020 317.200,37.200 317.430,37.200 317.712 C 37.200 317.993,37.560 318.483,38.000 318.800 C 38.440 319.117,38.800 319.625,38.800 319.928 C 38.800 320.231,39.340 320.983,40.000 321.600 C 40.660 322.217,41.200 322.836,41.200 322.977 C 41.200 323.264,41.469 323.610,43.199 325.542 C 43.859 326.281,44.400 327.042,44.400 327.234 C 44.400 327.426,45.390 328.573,46.600 329.783 C 47.810 330.993,48.800 332.157,48.800 332.371 C 48.800 332.584,50.770 334.703,53.179 337.079 C 58.486 342.316,57.684 341.514,62.921 346.821 C 65.297 349.230,67.416 351.200,67.629 351.200 C 67.843 351.200,69.007 352.190,70.217 353.400 C 71.427 354.610,72.571 355.600,72.758 355.600 C 72.946 355.600,73.887 356.320,74.849 357.200 C 75.812 358.080,76.753 358.800,76.939 358.800 C 77.126 358.800,77.783 359.340,78.400 360.000 C 79.017 360.660,79.769 361.200,80.072 361.200 C 80.375 361.200,80.883 361.560,81.200 362.000 C 81.517 362.440,82.007 362.800,82.288 362.800 C 82.570 362.800,82.800 362.980,82.800 363.200 C 82.800 363.420,83.030 363.600,83.312 363.600 C 83.593 363.600,84.083 363.960,84.400 364.400 C 84.717 364.840,85.257 365.200,85.600 365.200 C 85.943 365.200,86.483 365.560,86.800 366.000 C 87.117 366.440,87.657 366.800,88.000 366.800 C 88.343 366.800,88.883 367.160,89.200 367.600 C 89.517 368.040,90.057 368.400,90.400 368.400 C 90.743 368.400,91.283 368.760,91.600 369.200 C 91.917 369.640,92.329 370.000,92.516 370.000 C 92.703 370.000,93.641 370.540,94.600 371.200 C 95.559 371.860,96.537 372.400,96.772 372.400 C 97.007 372.400,97.200 372.580,97.200 372.800 C 97.200 373.020,97.560 373.200,98.000 373.200 C 98.440 373.200,98.800 373.347,98.800 373.526 C 98.800 373.874,101.358 375.200,102.030 375.200 C 102.252 375.200,102.820 375.560,103.292 376.000 C 103.764 376.440,104.387 376.800,104.675 376.800 C 104.964 376.800,105.200 376.980,105.200 377.200 C 105.200 377.420,105.560 377.600,106.000 377.600 C 106.440 377.600,106.800 377.780,106.800 378.000 C 106.800 378.220,107.160 378.400,107.600 378.400 C 108.040 378.400,108.400 378.580,108.400 378.800 C 108.400 379.020,108.745 379.200,109.167 379.200 C 109.588 379.200,109.993 379.335,110.067 379.500 C 110.259 379.932,113.572 381.600,114.238 381.600 C 114.547 381.600,114.800 381.780,114.800 382.000 C 114.800 382.220,115.250 382.400,115.800 382.400 C 116.350 382.400,116.800 382.580,116.800 382.800 C 116.800 383.020,117.160 383.200,117.600 383.200 C 118.040 383.200,118.400 383.380,118.400 383.600 C 118.400 383.820,118.760 384.000,119.200 384.000 C 119.640 384.000,120.000 384.180,120.000 384.400 C 120.000 384.620,120.349 384.800,120.776 384.800 C 121.203 384.800,121.664 384.980,121.800 385.200 C 121.936 385.420,122.487 385.600,123.024 385.600 C 123.561 385.600,124.000 385.780,124.000 386.000 C 124.000 386.220,124.272 386.400,124.605 386.400 C 124.938 386.400,125.523 386.559,125.905 386.753 C 126.531 387.072,127.245 387.380,129.800 388.438 C 132.162 389.416,139.350 391.600,140.206 391.600 C 140.753 391.600,141.200 391.780,141.200 392.000 C 141.200 392.220,141.830 392.400,142.600 392.400 C 143.370 392.400,144.000 392.580,144.000 392.800 C 144.000 393.020,144.630 393.200,145.400 393.200 C 146.170 393.200,146.800 393.380,146.800 393.600 C 146.800 393.820,147.430 394.000,148.200 394.000 C 148.970 394.000,149.600 394.180,149.600 394.400 C 149.600 394.620,150.320 394.800,151.200 394.800 C 152.080 394.800,152.800 394.980,152.800 395.200 C 152.800 395.420,153.700 395.600,154.800 395.600 C 155.900 395.600,156.800 395.780,156.800 396.000 C 156.800 396.220,157.520 396.400,158.400 396.400 C 159.280 396.400,160.000 396.580,160.000 396.800 C 160.000 397.020,160.990 397.200,162.200 397.200 C 163.410 397.200,164.400 397.380,164.400 397.600 C 164.400 397.820,165.379 398.000,166.576 398.000 C 167.773 398.000,168.864 398.180,169.000 398.400 C 169.136 398.620,170.482 398.800,171.990 398.800 C 173.829 398.800,174.788 398.965,174.900 399.300 C 175.144 400.032,224.856 400.032,225.100 399.300 C 225.212 398.965,226.171 398.800,228.010 398.800 C 229.518 398.800,230.864 398.620,231.000 398.400 C 231.136 398.180,232.227 398.000,233.424 398.000 C 234.621 398.000,235.600 397.820,235.600 397.600 C 235.600 397.380,236.590 397.200,237.800 397.200 C 239.010 397.200,240.000 397.020,240.000 396.800 C 240.000 396.580,240.720 396.400,241.600 396.400 C 242.480 396.400,243.200 396.220,243.200 396.000 C 243.200 395.780,244.100 395.600,245.200 395.600 C 246.300 395.600,247.200 395.420,247.200 395.200 C 247.200 394.980,247.920 394.800,248.800 394.800 C 249.680 394.800,250.400 394.620,250.400 394.400 C 250.400 394.180,251.030 394.000,251.800 394.000 C 252.570 394.000,253.200 393.820,253.200 393.600 C 253.200 393.380,253.830 393.200,254.600 393.200 C 255.370 393.200,256.000 393.020,256.000 392.800 C 256.000 392.580,256.630 392.400,257.400 392.400 C 258.170 392.400,258.800 392.220,258.800 392.000 C 258.800 391.780,259.247 391.600,259.794 391.600 C 260.688 391.600,268.047 389.348,270.300 388.385 C 270.795 388.173,271.695 387.799,272.300 387.553 C 272.905 387.308,273.713 386.948,274.095 386.753 C 274.477 386.559,275.062 386.400,275.395 386.400 C 275.728 386.400,276.000 386.220,276.000 386.000 C 276.000 385.780,276.439 385.600,276.976 385.600 C 277.513 385.600,278.064 385.420,278.200 385.200 C 278.336 384.980,278.797 384.800,279.224 384.800 C 279.651 384.800,280.000 384.620,280.000 384.400 C 280.000 384.180,280.360 384.000,280.800 384.000 C 281.240 384.000,281.600 383.820,281.600 383.600 C 281.600 383.380,281.960 383.200,282.400 383.200 C 282.840 383.200,283.200 383.020,283.200 382.800 C 283.200 382.580,283.650 382.400,284.200 382.400 C 284.750 382.400,285.200 382.220,285.200 382.000 C 285.200 381.780,285.453 381.600,285.762 381.600 C 286.428 381.600,289.741 379.932,289.933 379.500 C 290.007 379.335,290.412 379.200,290.833 379.200 C 291.255 379.200,291.600 379.020,291.600 378.800 C 291.600 378.580,291.960 378.400,292.400 378.400 C 292.840 378.400,293.200 378.220,293.200 378.000 C 293.200 377.780,293.560 377.600,294.000 377.600 C 294.440 377.600,294.800 377.420,294.800 377.200 C 294.800 376.980,295.036 376.800,295.325 376.800 C 295.613 376.800,296.236 376.440,296.708 376.000 C 297.180 375.560,297.748 375.200,297.970 375.200 C 298.642 375.200,301.200 373.874,301.200 373.526 C 301.200 373.347,301.560 373.200,302.000 373.200 C 302.440 373.200,302.800 373.020,302.800 372.800 C 302.800 372.580,302.993 372.400,303.228 372.400 C 303.463 372.400,304.441 371.860,305.400 371.200 C 306.359 370.540,307.297 370.000,307.484 370.000 C 307.671 370.000,308.083 369.640,308.400 369.200 C 308.717 368.760,309.257 368.400,309.600 368.400 C 309.943 368.400,310.483 368.040,310.800 367.600 C 311.117 367.160,311.657 366.800,312.000 366.800 C 312.343 366.800,312.883 366.440,313.200 366.000 C 313.517 365.560,314.057 365.200,314.400 365.200 C 314.743 365.200,315.283 364.840,315.600 364.400 C 315.917 363.960,316.407 363.600,316.688 363.600 C 316.970 363.600,317.200 363.420,317.200 363.200 C 317.200 362.980,317.430 362.800,317.712 362.800 C 317.993 362.800,318.483 362.440,318.800 362.000 C 319.117 361.560,319.625 361.200,319.928 361.200 C 320.231 361.200,320.983 360.660,321.600 360.000 C 322.217 359.340,322.874 358.800,323.061 358.800 C 323.247 358.800,324.188 358.080,325.151 357.200 C 326.113 356.320,327.054 355.600,327.242 355.600 C 327.429 355.600,328.573 354.610,329.783 353.400 C 330.993 352.190,332.157 351.200,332.371 351.200 C 332.584 351.200,334.703 349.230,337.079 346.821 C 342.316 341.514,341.514 342.316,346.821 337.079 C 349.230 334.703,351.200 332.584,351.200 332.371 C 351.200 332.157,352.190 330.993,353.400 329.783 C 354.610 328.573,355.600 327.429,355.600 327.242 C 355.600 327.054,356.320 326.113,357.200 325.151 C 358.080 324.188,358.800 323.247,358.800 323.061 C 358.800 322.874,359.340 322.217,360.000 321.600 C 360.660 320.983,361.200 320.231,361.200 319.928 C 361.200 319.625,361.560 319.117,362.000 318.800 C 362.440 318.483,362.800 317.993,362.800 317.712 C 362.800 317.430,362.980 317.200,363.200 317.200 C 363.420 317.200,363.600 316.970,363.600 316.688 C 363.600 316.407,363.960 315.917,364.400 315.600 C 364.840 315.283,365.200 314.743,365.200 314.400 C 365.200 314.057,365.560 313.517,366.000 313.200 C 366.440 312.883,366.800 312.343,366.800 312.000 C 366.800 311.657,367.160 311.117,367.600 310.800 C 368.040 310.483,368.400 309.943,368.400 309.600 C 368.400 309.257,368.760 308.717,369.200 308.400 C 369.640 308.083,370.000 307.671,370.000 307.484 C 370.000 307.297,370.540 306.359,371.200 305.400 C 371.860 304.441,372.400 303.463,372.400 303.228 C 372.400 302.993,372.580 302.800,372.800 302.800 C 373.020 302.800,373.200 302.440,373.200 302.000 C 373.200 301.560,373.347 301.200,373.526 301.200 C 373.874 301.200,375.200 298.642,375.200 297.970 C 375.200 297.748,375.560 297.180,376.000 296.708 C 376.440 296.236,376.800 295.613,376.800 295.325 C 376.800 295.036,376.980 294.800,377.200 294.800 C 377.420 294.800,377.600 294.440,377.600 294.000 C 377.600 293.560,377.780 293.200,378.000 293.200 C 378.220 293.200,378.400 292.840,378.400 292.400 C 378.400 291.960,378.580 291.600,378.800 291.600 C 379.020 291.600,379.200 291.255,379.200 290.833 C 379.200 290.412,379.335 290.007,379.500 289.933 C 379.932 289.741,381.600 286.428,381.600 285.762 C 381.600 285.453,381.780 285.200,382.000 285.200 C 382.220 285.200,382.400 284.750,382.400 284.200 C 382.400 283.650,382.580 283.200,382.800 283.200 C 383.020 283.200,383.200 282.840,383.200 282.400 C 383.200 281.960,383.380 281.600,383.600 281.600 C 383.820 281.600,384.000 281.240,384.000 280.800 C 384.000 280.360,384.180 280.000,384.400 280.000 C 384.620 280.000,384.800 279.651,384.800 279.224 C 384.800 278.797,384.980 278.336,385.200 278.200 C 385.420 278.064,385.600 277.513,385.600 276.976 C 385.600 276.439,385.780 276.000,386.000 276.000 C 386.220 276.000,386.400 275.728,386.400 275.395 C 386.400 275.062,386.559 274.477,386.753 274.095 C 386.948 273.713,387.308 272.905,387.553 272.300 C 387.799 271.695,388.173 270.795,388.385 270.300 C 389.348 268.047,391.600 260.688,391.600 259.794 C 391.600 259.247,391.780 258.800,392.000 258.800 C 392.220 258.800,392.400 258.170,392.400 257.400 C 392.400 256.630,392.580 256.000,392.800 256.000 C 393.020 256.000,393.200 255.370,393.200 254.600 C 393.200 253.830,393.380 253.200,393.600 253.200 C 393.820 253.200,394.000 252.570,394.000 251.800 C 394.000 251.030,394.180 250.400,394.400 250.400 C 394.620 250.400,394.800 249.680,394.800 248.800 C 394.800 247.920,394.980 247.200,395.200 247.200 C 395.420 247.200,395.600 246.300,395.600 245.200 C 395.600 244.100,395.780 243.200,396.000 243.200 C 396.220 243.200,396.400 242.480,396.400 241.600 C 396.400 240.720,396.580 240.000,396.800 240.000 C 397.020 240.000,397.200 239.010,397.200 237.800 C 397.200 236.590,397.380 235.600,397.600 235.600 C 397.820 235.600,398.000 234.621,398.000 233.424 C 398.000 232.227,398.180 231.136,398.400 231.000 C 398.620 230.864,398.800 229.518,398.800 228.010 C 398.800 226.171,398.965 225.212,399.300 225.100 C 399.693 224.969,399.800 219.591,399.800 200.000 C 399.800 180.409,399.693 175.031,399.300 174.900 C 398.965 174.788,398.800 173.829,398.800 171.990 C 398.800 170.482,398.620 169.136,398.400 169.000 C 398.180 168.864,398.000 167.773,398.000 166.576 C 398.000 165.379,397.820 164.400,397.600 164.400 C 397.380 164.400,397.200 163.410,397.200 162.200 C 397.200 160.990,397.020 160.000,396.800 160.000 C 396.580 160.000,396.400 159.280,396.400 158.400 C 396.400 157.520,396.220 156.800,396.000 156.800 C 395.780 156.800,395.600 155.900,395.600 154.800 C 395.600 153.700,395.420 152.800,395.200 152.800 C 394.980 152.800,394.800 152.080,394.800 151.200 C 394.800 150.320,394.620 149.600,394.400 149.600 C 394.180 149.600,394.000 148.970,394.000 148.200 C 394.000 147.430,393.820 146.800,393.600 146.800 C 393.380 146.800,393.200 146.170,393.200 145.400 C 393.200 144.630,393.020 144.000,392.800 144.000 C 392.580 144.000,392.400 143.370,392.400 142.600 C 392.400 141.830,392.220 141.200,392.000 141.200 C 391.780 141.200,391.600 140.753,391.600 140.206 C 391.600 139.350,389.416 132.162,388.438 129.800 C 387.380 127.245,387.072 126.531,386.753 125.905 C 386.559 125.523,386.400 124.938,386.400 124.605 C 386.400 124.272,386.220 124.000,386.000 124.000 C 385.780 124.000,385.600 123.561,385.600 123.024 C 385.600 122.487,385.420 121.936,385.200 121.800 C 384.980 121.664,384.800 121.203,384.800 120.776 C 384.800 120.349,384.620 120.000,384.400 120.000 C 384.180 120.000,384.000 119.640,384.000 119.200 C 384.000 118.760,383.820 118.400,383.600 118.400 C 383.380 118.400,383.200 118.040,383.200 117.600 C 383.200 117.160,383.020 116.800,382.800 116.800 C 382.580 116.800,382.400 116.350,382.400 115.800 C 382.400 115.250,382.220 114.800,382.000 114.800 C 381.780 114.800,381.600 114.547,381.600 114.238 C 381.600 113.572,379.932 110.259,379.500 110.067 C 379.335 109.993,379.200 109.588,379.200 109.167 C 379.200 108.745,379.020 108.400,378.800 108.400 C 378.580 108.400,378.400 108.040,378.400 107.600 C 378.400 107.160,378.220 106.800,378.000 106.800 C 377.780 106.800,377.600 106.440,377.600 106.000 C 377.600 105.560,377.420 105.200,377.200 105.200 C 376.980 105.200,376.800 104.964,376.800 104.675 C 376.800 104.387,376.440 103.764,376.000 103.292 C 375.560 102.820,375.200 102.252,375.200 102.030 C 375.200 101.358,373.874 98.800,373.526 98.800 C 373.347 98.800,373.200 98.440,373.200 98.000 C 373.200 97.560,373.020 97.200,372.800 97.200 C 372.580 97.200,372.400 97.007,372.400 96.772 C 372.400 96.537,371.860 95.559,371.200 94.600 C 370.540 93.641,370.000 92.703,370.000 92.516 C 370.000 92.329,369.640 91.917,369.200 91.600 C 368.760 91.283,368.400 90.743,368.400 90.400 C 368.400 90.057,368.040 89.517,367.600 89.200 C 367.160 88.883,366.800 88.343,366.800 88.000 C 366.800 87.657,366.440 87.117,366.000 86.800 C 365.560 86.483,365.200 85.943,365.200 85.600 C 365.200 85.257,364.840 84.717,364.400 84.400 C 363.960 84.083,363.600 83.593,363.600 83.312 C 363.600 83.030,363.420 82.800,363.200 82.800 C 362.980 82.800,362.800 82.570,362.800 82.288 C 362.800 82.007,362.440 81.517,362.000 81.200 C 361.560 80.883,361.200 80.375,361.200 80.072 C 361.200 79.769,360.660 79.017,360.000 78.400 C 359.340 77.783,358.800 77.126,358.800 76.939 C 358.800 76.753,358.080 75.812,357.200 74.849 C 356.320 73.887,355.600 72.946,355.600 72.758 C 355.600 72.571,354.610 71.427,353.400 70.217 C 352.190 69.007,351.200 67.843,351.200 67.629 C 351.200 67.416,349.230 65.297,346.821 62.921 C 341.514 57.684,342.316 58.486,337.079 53.179 C 334.703 50.770,332.584 48.800,332.371 48.800 C 332.157 48.800,330.993 47.810,329.783 46.600 C 328.573 45.390,327.426 44.400,327.234 44.400 C 327.042 44.400,326.329 43.905,325.651 43.300 C 323.648 41.514,323.248 41.200,322.977 41.200 C 322.836 41.200,322.217 40.660,321.600 40.000 C 320.983 39.340,320.231 38.800,319.928 38.800 C 319.625 38.800,319.117 38.440,318.800 38.000 C 318.483 37.560,317.993 37.200,317.712 37.200 C 317.430 37.200,317.200 37.020,317.200 36.800 C 317.200 36.580,316.970 36.400,316.688 36.400 C 316.407 36.400,315.917 36.040,315.600 35.600 C 315.283 35.160,314.743 34.800,314.400 34.800 C 314.057 34.800,313.517 34.440,313.200 34.000 C 312.883 33.560,312.343 33.200,312.000 33.200 C 311.657 33.200,311.117 32.840,310.800 32.400 C 310.483 31.960,309.943 31.600,309.600 31.600 C 309.257 31.600,308.717 31.240,308.400 30.800 C 308.083 30.360,307.671 30.000,307.484 30.000 C 307.297 30.000,306.359 29.460,305.400 28.800 C 304.441 28.140,303.463 27.600,303.228 27.600 C 302.993 27.600,302.800 27.420,302.800 27.200 C 302.800 26.980,302.440 26.800,302.000 26.800 C 301.560 26.800,301.200 26.653,301.200 26.474 C 301.200 26.126,298.642 24.800,297.970 24.800 C 297.748 24.800,297.180 24.440,296.708 24.000 C 296.236 23.560,295.613 23.200,295.325 23.200 C 295.036 23.200,294.800 23.020,294.800 22.800 C 294.800 22.580,294.440 22.400,294.000 22.400 C 293.560 22.400,293.200 22.220,293.200 22.000 C 293.200 21.780,292.840 21.600,292.400 21.600 C 291.960 21.600,291.600 21.420,291.600 21.200 C 291.600 20.980,291.255 20.800,290.833 20.800 C 290.412 20.800,290.007 20.665,289.933 20.500 C 289.741 20.068,286.428 18.400,285.762 18.400 C 285.453 18.400,285.200 18.220,285.200 18.000 C 285.200 17.780,284.750 17.600,284.200 17.600 C 283.650 17.600,283.200 17.420,283.200 17.200 C 283.200 16.980,282.840 16.800,282.400 16.800 C 281.960 16.800,281.600 16.620,281.600 16.400 C 281.600 16.180,281.240 16.000,280.800 16.000 C 280.360 16.000,280.000 15.820,280.000 15.600 C 280.000 15.380,279.651 15.200,279.224 15.200 C 278.797 15.200,278.336 15.020,278.200 14.800 C 278.064 14.580,277.513 14.400,276.976 14.400 C 276.439 14.400,276.000 14.220,276.000 14.000 C 276.000 13.780,275.728 13.600,275.395 13.600 C 275.062 13.600,274.477 13.441,274.095 13.247 C 273.713 13.052,272.905 12.692,272.300 12.447 C 271.695 12.201,270.795 11.829,270.300 11.620 C 268.020 10.658,260.633 8.400,259.767 8.400 C 259.235 8.400,258.800 8.220,258.800 8.000 C 258.800 7.780,258.170 7.600,257.400 7.600 C 256.630 7.600,256.000 7.420,256.000 7.200 C 256.000 6.980,255.370 6.800,254.600 6.800 C 253.830 6.800,253.200 6.620,253.200 6.400 C 253.200 6.180,252.570 6.000,251.800 6.000 C 251.030 6.000,250.400 5.820,250.400 5.600 C 250.400 5.380,249.680 5.200,248.800 5.200 C 247.920 5.200,247.200 5.020,247.200 4.800 C 247.200 4.580,246.300 4.400,245.200 4.400 C 244.100 4.400,243.200 4.220,243.200 4.000 C 243.200 3.780,242.480 3.600,241.600 3.600 C 240.720 3.600,240.000 3.420,240.000 3.200 C 240.000 2.980,239.010 2.800,237.800 2.800 C 236.590 2.800,235.600 2.620,235.600 2.400 C 235.600 2.180,234.621 2.000,233.424 2.000 C 232.227 2.000,231.136 1.820,231.000 1.600 C 230.864 1.380,229.518 1.200,228.010 1.200 C 226.233 1.200,225.210 1.031,225.107 0.720 C 224.948 0.244,188.291 -0.109,178.700 0.273 M254.928 77.700 C 255.557 78.162,255.601 79.885,255.504 100.400 L 255.400 122.600 239.000 122.800 C 214.179 123.103,214.657 122.586,214.889 148.800 L 215.000 161.400 234.784 161.504 C 245.665 161.561,254.703 161.743,254.869 161.909 C 255.191 162.231,254.793 167.130,253.220 182.200 C 253.014 184.180,252.663 187.690,252.441 190.000 C 252.219 192.310,251.833 196.090,251.585 198.400 C 251.336 200.710,251.012 203.770,250.866 205.200 L 250.600 207.800 232.800 208.000 L 215.000 208.200 214.899 273.454 L 214.798 338.707 213.899 338.948 C 211.578 339.570,161.272 339.214,160.629 338.571 C 160.062 338.005,160.000 331.504,160.000 272.977 L 160.000 208.011 147.300 207.906 L 134.600 207.800 134.600 184.800 L 134.600 161.800 147.300 161.694 L 160.000 161.589 159.997 147.494 C 159.994 134.314,160.382 125.843,161.183 121.600 C 161.370 120.610,161.733 118.720,161.990 117.400 C 164.985 102.001,174.785 89.033,188.130 82.810 C 190.029 81.925,191.846 81.200,192.168 81.200 C 192.490 81.200,192.851 81.041,192.971 80.846 C 193.092 80.651,193.687 80.396,194.295 80.279 C 194.903 80.162,196.120 79.857,197.000 79.602 C 199.189 78.966,202.259 78.419,207.000 77.818 C 212.707 77.095,253.966 76.993,254.928 77.700 " stroke="none" fill="#3c5c9b" fill-rule="evenodd"></path><path id="path2" d="M221.328 77.900 C 226.568 77.963,235.028 77.963,240.128 77.900 C 245.227 77.836,240.940 77.785,230.600 77.785 C 220.260 77.785,216.087 77.837,221.328 77.900 M207.300 78.291 C 208.125 78.378,209.475 78.378,210.300 78.291 C 211.125 78.205,210.450 78.134,208.800 78.134 C 207.150 78.134,206.475 78.205,207.300 78.291 M254.304 78.295 C 254.700 78.576,254.785 83.247,254.704 100.226 L 254.600 121.800 240.000 122.008 L 225.400 122.215 240.092 122.308 L 254.785 122.400 255.003 121.500 C 255.575 119.143,255.007 78.268,254.400 78.103 C 253.952 77.981,253.928 78.029,254.304 78.295 M202.200 78.800 L 200.600 79.086 202.000 79.115 C 202.770 79.131,203.760 78.989,204.200 78.800 C 205.143 78.395,204.462 78.395,202.200 78.800 M195.200 80.400 C 194.376 80.664,194.341 80.726,195.000 80.754 C 195.440 80.773,196.070 80.613,196.400 80.400 C 197.101 79.947,196.614 79.947,195.200 80.400 M191.733 81.522 C 190.816 81.895,189.916 82.350,189.733 82.533 C 189.550 82.717,190.390 82.477,191.600 82.000 C 192.810 81.523,193.875 81.058,193.967 80.967 C 194.307 80.627,193.351 80.865,191.733 81.522 M185.900 84.229 C 184.405 85.040,184.496 85.378,186.000 84.600 C 186.660 84.259,187.200 83.894,187.200 83.790 C 187.200 83.532,187.157 83.547,185.900 84.229 M175.586 91.896 C 174.384 93.159,174.099 93.564,174.952 92.796 C 177.492 90.513,178.381 89.600,178.068 89.600 C 177.906 89.600,176.789 90.633,175.586 91.896 M170.673 97.700 C 169.079 99.955,167.558 102.507,168.109 102.000 C 168.544 101.600,172.786 95.200,172.615 95.200 C 172.519 95.200,171.645 96.325,170.673 97.700 M221.621 122.779 C 221.246 123.016,221.670 123.065,222.821 122.918 C 223.799 122.792,224.675 122.625,224.767 122.545 C 225.142 122.219,222.155 122.440,221.621 122.779 M218.462 124.640 C 217.536 125.432,216.509 126.602,216.179 127.240 C 215.345 128.854,215.747 128.695,216.734 127.021 C 217.182 126.263,218.306 125.093,219.234 124.421 C 220.161 123.750,220.745 123.200,220.532 123.200 C 220.319 123.200,219.387 123.848,218.462 124.640 M160.942 128.200 C 160.941 130.180,161.008 131.040,161.092 130.112 C 161.176 129.184,161.177 127.564,161.095 126.512 C 161.012 125.460,160.943 126.220,160.942 128.200 M160.309 147.000 C 160.249 155.250,160.335 162.000,160.500 162.000 C 160.665 162.000,160.800 155.250,160.800 147.000 C 160.800 138.750,160.714 132.000,160.609 132.000 C 160.505 132.000,160.370 138.750,160.309 147.000 M214.487 147.100 C 214.439 155.295,214.535 162.000,214.700 162.000 C 214.973 162.001,214.967 150.562,214.686 137.400 C 214.625 134.540,214.535 138.905,214.487 147.100 M254.520 164.000 C 254.520 165.210,254.595 165.705,254.687 165.100 C 254.778 164.495,254.778 163.505,254.687 162.900 C 254.595 162.295,254.520 162.790,254.520 164.000 M134.987 185.200 C 134.987 197.630,135.038 202.715,135.100 196.500 C 135.162 190.285,135.162 180.115,135.100 173.900 C 135.038 167.685,134.987 172.770,134.987 185.200 M254.093 168.000 C 254.093 168.770,254.175 169.085,254.276 168.700 C 254.376 168.315,254.376 167.685,254.276 167.300 C 254.175 166.915,254.093 167.230,254.093 168.000 M253.720 172.400 C 253.720 173.610,253.795 174.105,253.887 173.500 C 253.978 172.895,253.978 171.905,253.887 171.300 C 253.795 170.695,253.720 171.190,253.720 172.400 M252.920 180.000 C 252.920 181.210,252.995 181.705,253.087 181.100 C 253.178 180.495,253.178 179.505,253.087 178.900 C 252.995 178.295,252.920 178.790,252.920 180.000 M252.120 187.600 C 252.120 188.810,252.195 189.305,252.287 188.700 C 252.378 188.095,252.378 187.105,252.287 186.500 C 252.195 185.895,252.120 186.390,252.120 187.600 M251.693 191.200 C 251.693 191.970,251.775 192.285,251.876 191.900 C 251.976 191.515,251.976 190.885,251.876 190.500 C 251.775 190.115,251.693 190.430,251.693 191.200 M251.029 197.229 C 250.876 198.579,250.833 199.766,250.933 199.867 C 251.034 199.967,251.244 198.947,251.400 197.600 C 251.556 196.253,251.599 195.066,251.495 194.962 C 251.391 194.858,251.181 195.878,251.029 197.229 M250.229 204.829 C 250.076 206.179,250.033 207.366,250.133 207.467 C 250.234 207.567,250.444 206.547,250.600 205.200 C 250.756 203.853,250.799 202.666,250.695 202.562 C 250.591 202.458,250.381 203.478,250.229 204.829 M147.999 207.897 L 160.398 208.011 160.499 273.106 L 160.600 338.200 187.600 338.200 L 214.600 338.200 214.701 273.104 L 214.802 208.008 232.101 207.898 L 249.400 207.787 232.000 207.794 L 214.600 207.800 214.499 272.900 L 214.398 338.000 187.600 338.000 L 160.802 338.000 160.701 272.900 L 160.600 207.800 148.100 207.791 L 135.600 207.783 147.999 207.897 " stroke="none" fill="#aab4d3" fill-rule="evenodd"></path><path id="path3" d="M209.000 77.563 C 207.900 77.693,217.416 77.741,230.147 77.668 C 242.878 77.596,253.724 77.645,254.250 77.777 L 255.207 78.017 255.103 100.108 L 255.000 122.200 240.000 122.410 L 225.000 122.620 240.200 122.610 L 255.400 122.600 255.504 100.400 C 255.601 79.885,255.557 78.162,254.928 77.700 C 254.214 77.176,213.297 77.053,209.000 77.563 M202.600 78.419 C 202.042 78.671,202.285 78.707,203.400 78.538 C 204.280 78.404,205.075 78.228,205.167 78.147 C 205.510 77.844,203.368 78.071,202.600 78.419 M198.400 79.218 C 197.962 79.515,198.124 79.552,199.000 79.356 C 200.471 79.027,200.790 78.798,199.767 78.806 C 199.345 78.809,198.730 78.995,198.400 79.218 M185.100 84.229 C 183.605 85.040,183.696 85.378,185.200 84.600 C 185.860 84.259,186.400 83.894,186.400 83.790 C 186.400 83.532,186.357 83.547,185.100 84.229 M181.893 86.214 C 181.072 86.772,180.400 87.315,180.400 87.420 C 180.400 87.525,181.120 87.135,182.000 86.553 C 183.397 85.628,183.870 85.200,183.493 85.200 C 183.434 85.200,182.714 85.656,181.893 86.214 M171.729 95.700 C 171.284 96.195,170.776 96.870,170.601 97.200 C 170.263 97.837,170.355 97.750,171.976 95.900 C 172.506 95.295,172.849 94.800,172.739 94.800 C 172.629 94.800,172.175 95.205,171.729 95.700 M161.800 118.000 C 161.648 118.691,161.607 119.341,161.709 119.442 C 161.811 119.544,162.009 119.053,162.150 118.350 C 162.483 116.683,162.160 116.360,161.800 118.000 M161.000 122.000 C 160.848 122.691,160.807 123.341,160.909 123.442 C 161.011 123.544,161.209 123.053,161.350 122.350 C 161.683 120.683,161.360 120.360,161.000 122.000 M216.221 127.824 C 215.852 128.388,215.606 129.001,215.675 129.186 C 215.744 129.371,216.111 128.910,216.492 128.162 C 217.309 126.553,217.168 126.378,216.221 127.824 M160.261 130.292 C 160.121 131.781,160.004 139.432,160.003 147.294 L 160.000 161.589 147.300 161.694 L 134.600 161.800 134.497 184.577 C 134.440 197.104,134.530 207.490,134.697 207.657 C 134.863 207.824,135.000 197.664,135.000 185.080 L 135.000 162.200 147.600 162.000 L 160.200 161.800 160.408 144.800 C 160.523 135.450,160.594 127.751,160.567 127.692 C 160.540 127.632,160.402 128.802,160.261 130.292 M214.909 132.800 C 214.909 133.790,214.987 134.195,215.082 133.700 C 215.178 133.205,215.178 132.395,215.082 131.900 C 214.987 131.405,214.909 131.810,214.909 132.800 M215.062 161.700 C 215.164 161.865,224.135 162.000,234.997 162.000 L 254.747 162.000 254.931 163.100 C 255.107 164.145,255.113 164.140,255.058 163.000 L 255.000 161.800 234.938 161.600 C 223.904 161.490,214.960 161.535,215.062 161.700 M254.246 169.046 C 254.100 170.293,254.059 171.393,254.157 171.490 C 254.254 171.588,254.461 170.654,254.615 169.415 C 254.770 168.177,254.810 167.077,254.705 166.971 C 254.599 166.866,254.393 167.799,254.246 169.046 M253.446 177.046 C 253.300 178.293,253.259 179.393,253.357 179.490 C 253.454 179.588,253.661 178.654,253.815 177.415 C 253.970 176.177,254.010 175.077,253.905 174.971 C 253.799 174.866,253.593 175.799,253.446 177.046 M252.646 184.646 C 252.500 185.893,252.459 186.993,252.557 187.090 C 252.654 187.188,252.861 186.254,253.015 185.015 C 253.170 183.777,253.210 182.677,253.105 182.571 C 252.999 182.466,252.793 183.399,252.646 184.646 M252.101 191.400 C 252.105 192.280,252.187 192.593,252.283 192.095 C 252.379 191.598,252.375 190.878,252.275 190.495 C 252.175 190.113,252.096 190.520,252.101 191.400 M251.701 194.600 C 251.705 195.480,251.787 195.793,251.883 195.295 C 251.979 194.798,251.975 194.078,251.875 193.695 C 251.775 193.313,251.696 193.720,251.701 194.600 M251.293 199.200 C 251.293 199.970,251.375 200.285,251.476 199.900 C 251.576 199.515,251.576 198.885,251.476 198.500 C 251.375 198.115,251.293 198.430,251.293 199.200 M250.901 202.200 C 250.905 203.080,250.987 203.393,251.083 202.895 C 251.179 202.398,251.175 201.678,251.075 201.295 C 250.975 200.913,250.896 201.320,250.901 202.200 M250.352 206.713 C 250.221 207.507,250.279 207.881,250.501 207.659 C 250.703 207.457,250.801 206.867,250.719 206.346 C 250.593 205.545,250.537 205.602,250.352 206.713 M160.098 272.871 C 160.010 331.578,160.061 338.004,160.629 338.571 C 161.663 339.606,214.800 339.490,214.800 338.453 C 214.800 338.314,202.605 338.200,187.700 338.200 L 160.600 338.200 160.398 273.000 L 160.196 207.800 160.098 272.871 " stroke="none" fill="#93a3c4" fill-rule="evenodd"></path><path id="path4" d="M250.291 77.889 C 251.001 77.977,252.261 77.979,253.091 77.892 C 253.921 77.805,253.340 77.733,251.800 77.731 C 250.260 77.729,249.581 77.800,250.291 77.889 " stroke="none" fill="#9caccc" fill-rule="evenodd"></path></g></svg>